<?xml version="1.0" standalone="no"?>
<!DOCTYPE svg PUBLIC "-//W3C//DTD SVG 20010904//EN"
 "http://www.w3.org/TR/2001/REC-SVG-20010904/DTD/svg10.dtd">
<svg version="1.0" xmlns="http://www.w3.org/2000/svg"
 width="600.000000pt" height="600.000000pt" viewBox="0 0 600.000000 600.000000"
 preserveAspectRatio="xMidYMid meet">
<metadata>
Created by potrace 1.14, written by Peter Selinger 2001-2017
</metadata>
<g transform="translate(0.000000,600.000000) scale(0.100000,-0.100000)"
fill="#000000" stroke="none">
<path d="M3860 5434 c-52 -15 -89 -23 -117 -26 -7 -1 -13 -5 -13 -9 0 -4 -8
-7 -17 -7 -19 1 -108 -17 -108 -22 0 -1 -7 -3 -15 -5 -8 -2 -26 -6 -40 -9 -55
-12 -67 -14 -110 -27 -25 -7 -54 -13 -66 -14 -11 -1 -25 -5 -31 -8 -5 -3 -25
-9 -44 -12 -45 -9 -63 -13 -66 -15 -4 -4 -21 -7 -38 -9 -9 0 -15 -11 -15 -25
0 -16 21 -44 66 -87 36 -35 71 -70 77 -77 7 -8 34 -36 62 -63 27 -27 44 -49
37 -49 -7 0 -12 -5 -12 -10 0 -6 -58 -68 -130 -138 -71 -70 -130 -132 -130
-138 0 -26 22 -31 73 -17 29 8 61 16 72 18 11 3 34 8 50 12 17 4 32 7 35 8 25
5 158 38 170 42 8 3 22 7 30 9 44 8 77 15 90 20 8 3 26 8 40 11 43 9 55 11 55
13 0 1 11 4 25 6 43 8 55 11 70 17 8 3 27 8 41 11 18 4 26 12 25 25 -1 16
-131 158 -218 238 -14 14 -25 30 -24 36 1 7 64 74 140 149 123 123 136 139
123 153 -18 18 -17 18 -87 -1z"/>
<path d="M2631 5009 c-40 -8 -99 -50 -178 -126 -13 -12 -23 -19 -23 -16 0 3
-11 -6 -25 -21 -13 -14 -29 -26 -34 -26 -6 0 -14 -6 -18 -13 -4 -7 -44 -42
-88 -77 -74 -60 -122 -101 -149 -125 -6 -5 -44 -35 -83 -64 -40 -30 -73 -59
-73 -64 0 -4 -4 -6 -9 -3 -5 4 -11 3 -13 -1 -1 -5 -34 -32 -73 -62 -38 -30
-71 -58 -73 -63 -2 -4 -8 -8 -14 -8 -5 0 -15 -6 -22 -12 -7 -7 -31 -26 -52
-43 -21 -16 -46 -38 -56 -47 -10 -10 -22 -18 -26 -18 -4 0 -14 -9 -22 -20 -8
-11 -18 -20 -22 -20 -4 0 -16 -8 -27 -17 -10 -10 -35 -31 -56 -48 -20 -16 -44
-38 -53 -47 -9 -10 -20 -18 -24 -18 -4 0 -20 -12 -36 -27 -16 -16 -53 -48 -82
-73 -140 -119 -307 -301 -385 -420 -17 -25 -34 -48 -40 -52 -5 -4 -6 -8 -2 -8
5 0 2 -7 -5 -15 -25 -28 -38 -45 -39 -50 -3 -23 -13 -45 -20 -45 -5 0 -8 -3
-7 -7 1 -5 -6 -24 -17 -43 -11 -19 -20 -37 -20 -40 0 -3 -6 -14 -12 -26 -26
-46 -93 -226 -88 -235 4 -5 2 -9 -3 -9 -6 0 -29 -77 -47 -160 -1 -3 -4 -18 -8
-35 -3 -16 -9 -46 -11 -65 -3 -19 -8 -46 -10 -59 -25 -122 -26 -475 -1 -585 8
-37 17 -80 22 -111 2 -16 7 -37 10 -45 3 -8 7 -25 9 -37 5 -38 55 -193 64
-198 5 -3 7 -12 3 -20 -3 -8 0 -15 7 -15 7 0 10 -6 7 -14 -3 -7 3 -26 13 -41
11 -16 17 -32 14 -37 -3 -4 -1 -8 3 -8 5 0 17 -23 28 -50 11 -27 23 -50 27
-50 4 0 7 -3 6 -7 -2 -8 3 -18 39 -78 10 -16 27 -45 38 -64 22 -37 128 -180
166 -224 64 -75 206 -210 294 -280 56 -45 221 -154 243 -161 12 -4 22 -12 22
-17 0 -5 3 -8 8 -7 4 1 44 -17 89 -39 45 -23 84 -38 87 -35 3 3 6 -1 6 -8 0
-7 3 -10 7 -7 3 4 11 2 18 -3 6 -5 20 -11 31 -13 10 -2 30 -9 44 -14 14 -6 40
-14 58 -18 17 -3 32 -11 32 -17 0 -6 2 -9 6 -6 3 3 22 1 42 -4 20 -5 55 -13
77 -18 22 -4 65 -13 95 -19 83 -17 98 -19 190 -27 163 -13 351 -6 485 17 33 6
71 13 85 15 14 3 68 16 120 31 52 14 102 27 110 28 8 2 17 4 20 5 3 1 8 2 13
1 4 0 7 4 7 11 0 6 3 8 6 5 4 -3 16 -1 28 5 11 7 26 13 31 14 6 1 28 10 50 20
22 10 46 19 54 20 8 2 17 8 21 14 4 7 10 11 14 11 19 -3 271 141 296 170 3 3
32 24 64 47 33 23 55 42 50 42 -4 0 3 8 16 17 38 27 87 72 154 142 34 36 70
74 81 85 12 12 36 41 55 66 19 24 42 52 50 61 8 8 29 33 47 55 29 36 132 162
171 209 10 11 33 40 52 65 19 25 38 46 42 48 5 2 8 8 8 13 0 5 13 22 28 37 15
15 29 30 30 35 4 15 76 107 84 107 4 0 8 6 8 13 0 6 16 29 35 50 19 21 35 40
35 43 0 3 6 11 13 19 6 7 28 32 46 55 19 23 40 48 46 54 5 6 26 31 45 55 19
25 44 54 55 66 31 33 75 87 75 91 0 4 47 58 78 90 7 8 11 14 7 14 -3 0 7 13
23 28 66 65 66 166 -2 225 -12 11 -38 33 -60 50 -21 18 -43 37 -50 42 -6 6
-36 30 -66 55 -30 25 -57 47 -60 50 -3 3 -57 47 -120 98 -63 51 -134 110 -158
130 -24 20 -49 42 -55 47 -61 52 -109 87 -138 99 -35 14 -99 11 -99 -6 0 -5
-4 -7 -9 -4 -8 6 -81 -56 -81 -69 0 -4 -6 -12 -12 -19 -7 -7 -31 -35 -53 -61
-22 -27 -46 -54 -52 -61 -7 -7 -13 -15 -13 -18 0 -3 -8 -14 -17 -24 -25 -25
-61 -68 -107 -127 -22 -28 -47 -57 -55 -66 -9 -9 -23 -27 -31 -39 -8 -13 -30
-39 -48 -59 -17 -20 -35 -44 -38 -54 -3 -9 -10 -15 -15 -12 -5 4 -9 -1 -9 -10
0 -8 -7 -18 -15 -21 -8 -4 -15 -11 -15 -17 0 -6 -7 -17 -15 -26 -42 -44 -103
-126 -99 -133 3 -5 -1 -8 -8 -8 -7 0 -31 -25 -52 -55 -22 -30 -43 -55 -48 -55
-4 0 -8 -7 -8 -15 0 -8 -4 -15 -8 -15 -4 0 -26 -23 -47 -52 -22 -28 -53 -66
-70 -84 -16 -18 -43 -49 -60 -70 -16 -20 -35 -42 -40 -48 -6 -6 -32 -38 -59
-71 -97 -118 -198 -208 -277 -247 -107 -53 -189 -78 -261 -80 -16 -1 -28 -4
-28 -7 0 -7 -71 -5 -175 3 -85 8 -97 10 -111 19 -7 4 -29 9 -50 13 -22 3 -45
11 -51 16 -7 6 -13 8 -13 5 0 -10 -140 63 -204 106 -78 53 -206 186 -206 216
0 6 -4 11 -8 11 -19 0 -93 169 -122 280 -19 69 -33 281 -21 305 3 6 6 21 7 35
0 14 4 33 9 42 4 10 8 29 9 43 0 14 4 25 9 25 4 0 6 3 6 8 -1 4 0 9 1 12 1 3
3 12 5 21 5 29 65 141 100 189 36 50 111 120 127 120 5 0 6 5 3 10 -3 6 0 10
8 10 7 0 23 10 34 23 11 12 40 38 64 57 24 19 62 51 84 70 23 19 63 53 89 75
27 22 54 45 60 50 6 6 31 26 56 45 25 19 52 42 61 52 9 10 21 18 28 18 6 0 16
9 23 20 7 11 16 20 20 20 8 0 45 29 80 63 10 9 22 17 27 17 5 0 11 3 13 8 4 9
94 82 102 82 3 0 15 10 28 23 13 12 38 33 57 47 18 14 40 32 49 41 10 8 37 31
62 50 24 18 52 41 61 49 9 8 25 22 35 30 32 25 128 104 140 115 6 5 28 24 49
40 53 41 130 115 121 115 -5 0 -3 7 4 15 6 8 9 18 6 24 -3 5 -2 11 3 13 6 2 2
25 -7 53 -16 46 -27 63 -87 129 -11 13 -33 40 -50 60 -16 21 -35 43 -40 50 -6
6 -42 49 -80 96 -38 47 -74 90 -80 96 -5 7 -21 26 -35 44 -14 17 -36 45 -50
60 -14 16 -38 45 -55 66 -16 20 -36 43 -42 50 -7 7 -13 15 -13 17 0 11 -67 74
-90 84 -41 18 -53 20 -89 12z"/>
<path d="M5530 3883 c-19 -7 -244 -106 -338 -149 -41 -19 -78 -34 -83 -34 -5
0 -9 -5 -9 -10 0 -6 -3 -9 -7 -8 -9 1 -28 -6 -108 -42 -33 -15 -76 -34 -96
-43 -65 -30 -56 -51 51 -122 25 -16 47 -33 50 -36 3 -4 30 -23 60 -42 102 -67
98 -58 54 -124 -21 -32 -40 -60 -43 -63 -4 -3 -17 -22 -31 -42 -14 -21 -28
-38 -32 -38 -5 0 -8 -5 -8 -10 0 -10 -37 -68 -51 -80 -14 -12 -18 -44 -8 -56
9 -11 18 -10 50 6 21 11 39 17 39 14 0 -4 9 1 21 12 12 10 23 18 25 16 2 -1
25 6 50 18 26 11 50 20 53 20 4 0 12 5 19 12 6 6 19 13 27 14 24 4 75 28 75
36 0 5 5 8 11 8 5 0 7 -6 3 -12 -4 -7 4 -3 18 10 13 12 32 22 41 22 9 0 17 5
17 10 0 6 3 9 8 8 8 -2 42 12 120 49 31 14 63 28 71 29 8 1 17 6 20 11 3 4 13
9 21 11 51 12 44 43 -22 88 -47 32 -181 126 -215 152 -13 9 -23 22 -23 29 0 6
10 19 23 28 12 8 20 17 17 20 -3 2 3 13 12 25 10 11 16 20 13 20 -5 0 18 30
43 56 7 8 10 14 5 14 -4 0 -3 4 3 8 19 12 105 145 101 157 -4 12 -26 16 -47 8z"/>
</g>
</svg>
