<svg xmlns="http://www.w3.org/2000/svg" xmlns:xlink="http://www.w3.org/1999/xlink" xmlns:lucid="lucid" width="702.83" height="621"><g transform="translate(-137.16666666666666 -60)" lucid:page-tab-id="0_0"><path d="M0 0h1870.87v1322.83H0z" fill="#fff"/><path d="M420 306c0-3.3 2.7-6 6-6h388c3.3 0 6 2.7 6 6v68c0 3.3-2.7 6-6 6H426c-3.3 0-6-2.7-6-6z" stroke="#5e5e5e" stroke-width="3" fill="#e5e5e5"/><use xlink:href="#a" transform="matrix(1,0,0,1,432,312) translate(110.22222222222221 31.77777777777778)"/><use xlink:href="#b" transform="matrix(1,0,0,1,432,312) translate(132.44444444444443 31.77777777777778)"/><use xlink:href="#c" transform="matrix(1,0,0,1,432,312) translate(154.66666666666666 31.77777777777778)"/><use xlink:href="#d" transform="matrix(1,0,0,1,432,312) translate(176.88888888888886 31.77777777777778)"/><use xlink:href="#e" transform="matrix(1,0,0,1,432,312) translate(199.1111111111111 31.77777777777778)"/><use xlink:href="#f" transform="matrix(1,0,0,1,432,312) translate(221.33333333333331 31.77777777777778)"/><use xlink:href="#g" transform="matrix(1,0,0,1,432,312) translate(243.55555555555554 31.77777777777778)"/><g filter="url(#h)"><path d="M360 340c0 33.14-26.86 60-60 60s-60-26.86-60-60 26.86-60 60-60 60 26.86 60 60z" stroke="#5e5e5e" stroke-width="3" fill="#99d2f2"/><use xlink:href="#i" transform="matrix(1,0,0,1,245,285) translate(11.099999999999994 59.0875)"/><use xlink:href="#j" transform="matrix(1,0,0,1,245,285) translate(27.999999999999996 59.0875)"/><use xlink:href="#k" transform="matrix(1,0,0,1,245,285) translate(44.9 59.0875)"/><use xlink:href="#l" transform="matrix(1,0,0,1,245,285) translate(62.9 59.0875)"/><use xlink:href="#m" transform="matrix(1,0,0,1,245,285) translate(80.9 59.0875)"/></g><path d="M362.5 340H400" stroke="#5e5e5e" stroke-width="2" fill="none"/><path d="M362.53 341h-1.07l.04-1-.03-1h1.06z" fill="#5e5e5e"/><path d="M415.26 340L401 344.64v-9.28z" stroke="#5e5e5e" stroke-width="2" fill="#5e5e5e"/><path d="M420 566c0-3.3 2.7-6 6-6h388c3.3 0 6 2.7 6 6v68c0 3.3-2.7 6-6 6H426c-3.3 0-6-2.7-6-6z" stroke="#5e5e5e" stroke-width="3" fill="#e5e5e5"/><use xlink:href="#a" transform="matrix(1,0,0,1,432,572) translate(76.88888888888887 31.77777777777778)"/><use xlink:href="#b" transform="matrix(1,0,0,1,432,572) translate(99.11111111111109 31.77777777777778)"/><use xlink:href="#n" transform="matrix(1,0,0,1,432,572) translate(121.33333333333331 31.77777777777778)"/><use xlink:href="#o" transform="matrix(1,0,0,1,432,572) translate(143.55555555555554 31.77777777777778)"/><use xlink:href="#p" transform="matrix(1,0,0,1,432,572) translate(165.77777777777777 31.77777777777778)"/><use xlink:href="#q" transform="matrix(1,0,0,1,432,572) translate(188 31.77777777777778)"/><use xlink:href="#r" transform="matrix(1,0,0,1,432,572) translate(210.22222222222223 31.77777777777778)"/><use xlink:href="#s" transform="matrix(1,0,0,1,432,572) translate(232.44444444444446 31.77777777777778)"/><use xlink:href="#f" transform="matrix(1,0,0,1,432,572) translate(254.66666666666669 31.77777777777778)"/><use xlink:href="#g" transform="matrix(1,0,0,1,432,572) translate(276.8888888888889 31.77777777777778)"/><g filter="url(#t)"><path d="M360 600c0 33.14-26.86 60-60 60s-60-26.86-60-60 26.86-60 60-60 60 26.86 60 60z" stroke="#5e5e5e" stroke-width="3" fill="#ffbbb1"/><use xlink:href="#i" transform="matrix(1,0,0,1,245,545) translate(11.099999999999994 59.0875)"/><use xlink:href="#u" transform="matrix(1,0,0,1,245,545) translate(27.999999999999996 59.0875)"/><use xlink:href="#k" transform="matrix(1,0,0,1,245,545) translate(44.9 59.0875)"/><use xlink:href="#l" transform="matrix(1,0,0,1,245,545) translate(62.9 59.0875)"/><use xlink:href="#m" transform="matrix(1,0,0,1,245,545) translate(80.9 59.0875)"/></g><path d="M362.5 600H400" stroke="#5e5e5e" stroke-width="2" fill="none"/><path d="M362.53 601h-1.07l.04-1-.03-1h1.06z" fill="#5e5e5e"/><path d="M415.26 600L401 604.64v-9.28z" stroke="#5e5e5e" stroke-width="2" fill="#5e5e5e"/><path d="M301 520h-2v-38h2zm0-62h-2v-55.5h2z" fill="#5e5e5e"/><path d="M300 401.5l1-.03v1.06h-2v-1.07zM300 535.26L295.36 521h9.28z" fill="#5e5e5e"/><path d="M300 538.5l-6-18.5h12zm-3.26-16.5l3.26 10.03 3.26-10.03z" fill="#5e5e5e"/><g><use xlink:href="#v" transform="matrix(1,0,0,1,148.16666666666666,458) translate(0 16)"/><use xlink:href="#w" transform="matrix(1,0,0,1,148.16666666666666,458) translate(20 16)"/><use xlink:href="#x" transform="matrix(1,0,0,1,148.16666666666666,458) translate(106.05555555555557 16)"/><use xlink:href="#y" transform="matrix(1,0,0,1,148.16666666666666,458) translate(162.55555555555557 16)"/><use xlink:href="#z" transform="matrix(1,0,0,1,148.16666666666666,458) translate(182.55555555555557 16)"/><use xlink:href="#A" transform="matrix(1,0,0,1,148.16666666666666,458) translate(202.55555555555557 16)"/><use xlink:href="#B" transform="matrix(1,0,0,1,148.16666666666666,458) translate(222.55555555555557 16)"/><use xlink:href="#C" transform="matrix(1,0,0,1,148.16666666666666,458) translate(242.55555555555557 16)"/></g><path d="M338.32 160h-76.64c-.88 0-1.68-.76-1.68-1.7v-5.12c0-18.18 11.92-33.43 29.52-37.7.48-.1.88-.05 1.28.17 5.92 3.2 12.48 3.2 18.4 0 .4-.22.8-.26 1.2-.17 17.68 4.27 29.6 19.52 29.6 37.7v5.13c0 .94-.8 1.7-1.68 1.7zm-74.88-3.43h73.12v-3.4c.08-16.35-10.56-30.07-26.32-34.17-3.36 1.65-6.48 2.4-10.24 2.4s-6.88-.7-10.24-2.4c-15.76 4.1-26.4 17.82-26.32 34.18z" stroke="#fff" stroke-opacity="0" fill="#232f3e"/><path d="M300 121.3c-3.67 0-6.8-.78-10.03-2.56-9.95-5.58-13.5-18.2-7.93-28.17 5.58-9.95 18.17-13.5 28.1-7.93 6.72 3.76 10.56 10.33 10.56 18.05 0 7.76-3.93 14.36-10.74 18.04-3.22 1.73-6.32 2.56-9.95 2.56zm0-37.83c-6.6-.17-12.26 3.18-15.44 8.96-4.5 8.4-1.4 18.8 6.94 23.34 5.4 2.93 11.36 2.93 16.77 0 5.7-3.1 9-8.68 8.96-15.2-.04-9.5-7.76-17.14-17.22-17.1z" stroke="#fff" stroke-opacity="0" fill="#232f3e"/><path d="M301 260h-2v-42.67h2zm0-64h-2v-35h2z" fill="#5e5e5e"/><path d="M301 161.03h-2V160h2zM300 275.26L295.36 261h9.28z" fill="#5e5e5e"/><path d="M300 278.5l-6-18.5h12zm-3.26-16.5l3.26 10.03 3.26-10.03z" fill="#5e5e5e"/><g><use xlink:href="#D" transform="matrix(1,0,0,1,236.81481481481484,196) translate(0 14.222222222222223)"/><use xlink:href="#E" transform="matrix(1,0,0,1,236.81481481481484,196) translate(37.48148148148149 14.222222222222223)"/><use xlink:href="#F" transform="matrix(1,0,0,1,236.81481481481484,196) translate(55.25925925925927 14.222222222222223)"/><use xlink:href="#G" transform="matrix(1,0,0,1,236.81481481481484,196) translate(73.03703703703704 14.222222222222223)"/><use xlink:href="#H" transform="matrix(1,0,0,1,236.81481481481484,196) translate(90.81481481481481 14.222222222222223)"/><use xlink:href="#I" transform="matrix(1,0,0,1,236.81481481481484,196) translate(108.59259259259258 14.222222222222223)"/></g><defs><path fill="#333" d="M99-129c11-26 30-42 43-72h174c11 0 10-8 2-12-9-4-16-11-21-17l-18 19H147c6-12 11-28 22-36-6-5-20-8-29-15-3 17-8 34-14 51H30l6 10h87c-8 18-17 36-28 53-8-1-13-3-18-4 2 5 4 14 4 25-16 22-36 43-59 65l3 3c19-14 37-31 56-52l1 165c6-3 15-3 17-10v-173zm133 24c21-7 31-27 58-31 11-1 13-8 5-13-6-4-12-11-18-21l-13 12H140l6 10h120c-14 17-28 31-42 42-6-1-11-3-18-5 3 10 3 30 3 46h-99l5 9h94v74c-2 12-32 6-44 6v4c17 4 24 13 30 25 13-2 32-16 32-35v-74h96c9 0 11-9 2-11-9-5-15-12-20-18l-17 20h-61c-1-17 0-32 8-38 0-1-1-2-3-2" id="J"/><use transform="matrix(0.06172839506172839,0,0,0.06172839506172839,0,0)" xlink:href="#J" id="a"/><path fill="#333" d="M84-167c1-8 8-13-4-15 7-15 13-34 20-55 2-4 20-7 5-13-6-2-13-6-21-12-12 71-32 121-66 168l3 2c19-20 34-45 46-67V50c1 9 10 0 14 0 2-1 3-2 3-4v-213zm82-15c13-4 10-23-2-34-8-6-24-23-42-28 20 20 23 25 34 53 2 5 6 9 10 9zm-10 45c1-9 17-11 6-18-4-2-8-6-12-11-7 14-34 9-55 10 3 15 29 7 45 9V-5c0 7-4 12-10 16 7 7 12 14 16 21 17-17 41-40 52-67-14 15-28 26-42 34v-136zm69 49c20-13 34-25 47-39h54c10 0 10-8 2-12-9-4-15-11-20-17-9 7-10 21-28 19 13-16 28-41 47-74 2-3 16-7 5-12-5-2-11-5-17-9-17 42-34 74-52 95h-17v-56h45c9 1 9-9 2-11-7-4-13-9-17-14-8 7-12 18-30 15-1-21 0-41 7-51l-26-8c4 15 1 40 2 59h-42l5 10h37v56h-56l6 10h76c-20 23-51 47-92 70l2 3c16-8 30-16 43-24 3 40 0 86 1 128 1 9 10 0 14 0 5-3 1-12 2-18h69c1 5-2 14 3 14 4-2 11-3 13-7 3-38-8-93 7-117-3-9-15-10-20-19l-11 12c-20-2-47 4-61-3zm0 110v-46h69v46h-69zm0-56v-41h69v41h-69" id="K"/><use transform="matrix(0.06172839506172839,0,0,0.06172839506172839,0,0)" xlink:href="#K" id="b"/><path fill="#333" d="M76-166c2-28-5-66 5-85-3-7-20-4-25-8 5 20 2 65 3 93H15c3 15 27 9 44 10l1 211c5-3 14-2 16-8v-203c17-3 46 7 53-6-5-8-20-12-23-20-8 7-12 19-30 16zm218 86c12-25-10-80 14-90-3-9-15-10-21-19-8 17-40 10-63 11v-30h99c9 0 10-10 1-11-8-5-14-9-18-15l-15 16h-67c-2-16 4-23 7-32l-26-8c3 9 2 27 2 40h-93l6 10h87v30c-28 0-60 4-75-10 9 33 2 78 4 117 6 6 21-1 17-15h127c-3 11 6 9 14 6zM153-96v-31h54v31h-54zm71-31h56v31h-56v-31zm-71-10v-31h54v31h-54zm71-31h56v31h-56v-31zm22-86c16 11 21 22 30 32 8 1 12-16 3-21-4-2-21-13-33-11zm-5 305c35 10 26-51 27-90h59c8 0 10-10 1-11-8-5-14-11-19-17l-17 18h-24c-6-16 16-22 1-27-6 0-13-2-20-5 2 6 2 20 2 32H96l6 10h149v64c-4 12-31 4-42 3v4c17 3 28 9 32 19zm-62-30c23-21 0-34-35-47l-3 3c14 11 25 24 31 38 2 4 4 6 7 6" id="L"/><use transform="matrix(0.06172839506172839,0,0,0.06172839506172839,0,0)" xlink:href="#L" id="c"/><path fill="#333" d="M183-218c-2-16 4-22 6-32l-28-9c5 9 4 26 4 41H55c-1-5 4-16-4-15 6 25-41 57-14 70 15-4 15-21 17-45h237c-7 16-13 28-19 37l3 3c15-8 19-29 43-32 9-1 10-11 3-14-6-4-13-9-19-16l-14 12H183zm-43 44c0-9 24-12 10-19-5-2-11-4-17-8-24 52-40 68-85 98l2 3c29-12 56-31 75-55 15 22 29 39 43 51-42 31-73 41-149 71l3 3c28-8 52-16 74-24 9 30-3 78 6 108 9-3 18-5 15-19h121c1 5-2 16 2 18 5-2 13-3 16-7v-72c-1-9 24-14 7-22-5-3-11-8-17-14l-11 13H116l-14-7c25-9 57-29 79-38 29 20 77 39 120 45 6-9 15-15 29-18v-4c-56-2-102-17-137-34 18-12 41-40 66-55-4-10-16-14-20-24-18 18-66 7-99 10zM117 25v-64h121v64H117zm112-190c-17 23-31 39-49 52-19-12-36-27-52-46 1-2 4-4 5-6h96" id="M"/><use transform="matrix(0.06172839506172839,0,0,0.06172839506172839,0,0)" xlink:href="#M" id="d"/><path fill="#333" d="M44-241c21 13 25 28 37 40 11 0 13-19 4-26-7-5-19-11-38-18zm-19 70c18 14 22 29 33 41 10 0 12-19 4-26-5-6-17-12-35-19zM70-13c10-65 20-92 34-154l-2-1C84-122 69-83 57-49c-6 18-17 14-34 16v5c31 2 30 20 30 49 0 14 16 25 23 13 8-13-9-32-6-47zm236-145c-1-8 19-13 4-20-5-3-10-7-15-13l-11 10h-67c9-12 17-27 24-44h86c7 0 6-8 1-11-9-4-16-10-22-18l-18 20H143l-23-14c4 12 5 36 5 75-1 117-3 143-36 212l3 1c51-64 51-137 51-265h77c-2 15-4 29-8 44-22 1-40-1-51-10 9 36 2 85 4 127 5 5 20-1 16-13h50v95c-1 15-30 8-44 7v4c24 4 31 14 40 24 34-12 16-85 20-130h43c1 4-2 11 2 12 4-2 12-3 14-7v-86zM181-86v-40h109v40H181zm0-50v-35h109v35H181zM122 38c33-10 54-46 81-69-4-7-15-8-22-17-13 37-33 62-59 86zm191-17c6 14 22 8 19-8-5-26-33-45-63-58 26 27 30 30 44 66" id="N"/><use transform="matrix(0.06172839506172839,0,0,0.06172839506172839,0,0)" xlink:href="#N" id="e"/><path fill="#333" d="M183-191c1-19-4-45 6-54-3-7-18-4-26-9 5 17 2 42 3 63H25l5 10h75c15 71 28 108 60 148C138-6 76 32 19 49l3 4c62-18 112-41 152-75 28 32 64 57 106 73 10-8 24-12 39-12v-4c-59-12-99-36-132-69 27-30 48-73 72-147h64c8-1 6-10-2-12-6-4-12-10-20-19l-19 21h-99zm-73 10h129c-17 61-38 106-63 136-34-37-53-79-66-136" id="O"/><use transform="matrix(0.06172839506172839,0,0,0.06172839506172839,0,0)" xlink:href="#O" id="f"/><path fill="#333" d="M81-153c4-8 8-14-5-17 10-19 20-41 30-66 3-3 19-6 5-12-6-3-12-7-19-14-16 70-41 120-74 168l3 2c14-15 28-33 42-55V51c1 9 10 0 15 0 2-1 3-2 3-4v-200zm77-20c9-11 9-32 22-41 6-2 5-6-2-9-6-2-13-5-20-10-10 54-26 93-55 126l3 3c20-18 33-37 47-59h59v86H102l5 10h105l1 122c5-3 14-3 16-9V-67h98c10 0 10-7 2-11-9-4-16-12-21-18l-18 19h-61v-86h86c7 0 6-8 1-11-9-4-16-10-22-18l-18 19h-47c2-26-6-62 7-75-5-7-23-4-29-8 7 15 5 57 5 83h-54" id="P"/><use transform="matrix(0.06172839506172839,0,0,0.06172839506172839,0,0)" xlink:href="#P" id="g"/><path d="M222-8c15 3 43 12 50-4 5-13 6-29 7-45H179v99h-24c0-32-1-63 4-90-34 33-77 58-127 77L21 8c44-13 86-38 117-65H39c6-22 10-50 16-75h100v-35H49v-21h236v74H179v37h125c-5 50 3 108-61 95-5 0-11-1-18-2zm-66-198c19-21 33-45 43-75l22 6-8 21h104v20h-65l12 32-21 8-14-40h-26c-8 15-18 28-27 41zm-137 7c22-22 41-51 51-82l22 6-9 21h88v20h-53l12 32-21 8c-4-14-9-27-14-40H73c-11 20-22 35-37 51zM68-77h87v-37H76zm111-90v35h83v-35h-83" id="Q"/><use transform="matrix(0.05,0,0,0.05,0,0)" xlink:href="#Q" id="i"/><path d="M27-114v-21h284v21H27" id="R"/><use transform="matrix(0.05,0,0,0.05,0,0)" xlink:href="#R" id="j"/><path d="M178-234c2-8 24-8 8-16-6-2-11-6-18-11-44 84-71 111-150 158l1 5c67-26 119-75 156-133 31 61 70 93 120 122 9-8 22-13 37-13l2-4c-68-18-121-57-156-108zm6 100c-2-10 15-15 1-20-9-1-17-3-22-5 9 63-3 148 5 213 5-3 13-3 16-8v-180" id="S"/><use transform="matrix(0.05,0,0,0.05,0,0)" xlink:href="#S" id="k"/><path d="M18-108c69-24 120-72 160-129 31 60 73 92 124 119 8-7 19-11 33-11l1-4c-66-19-119-57-155-106 4-4 19-7 5-12-6-2-11-6-18-11-44 81-72 104-151 150zm232 74c3-31-8-74 11-88-5-7-14-10-21-20l-13 13H118l-23-13c5 45 1 103 2 152 1 25 5 33 28 34h144c14 0 20-5 25-16-11-4-13-17-14-36h-3c-3 27-3 36-41 36H132c-14 0-17-5-17-18v-129h117v81c-5 15-35 3-51 5v3c26 5 32 13 40 24 10-2 32-12 29-28" id="T"/><use transform="matrix(0.05,0,0,0.05,0,0)" xlink:href="#T" id="l"/><path d="M156-256c16 12 22 26 31 37 10 1 14-20 4-25-5-5-16-11-32-17zM22 54C74-1 70-101 70-206h251c8 1 8-8 2-11-9-4-16-9-22-17l-18 19H71l-24-12c10 26 5 59 5 91C52-61 49 2 21 51zM205-75c1-16-3-38 5-46-4-6-20-4-25-8 3 9 3 37 3 54h-68c15-21 28-44 42-69h147c11-12-17-17-22-29l-16 20H168c7-12 11-28 21-35l-20-8c-6 15-13 29-20 43H78l6 9h60c-16 30-31 53-49 76 3 5 15 12 20 3h73v39H70l6 10h112c1 23-2 49 1 70 5-3 14-3 16-8v-62h116c8-2 5-9-2-12-6-4-12-9-19-17l-17 19h-78v-39h85c8-1 6-10-1-13-6-3-13-7-20-15l-18 18h-46" id="U"/><use transform="matrix(0.05,0,0,0.05,0,0)" xlink:href="#U" id="m"/><filter id="h" filterUnits="objectBoundingBox" x="-.09" y="-.03" width="1.17" height="1.17"><feOffset result="offOut" in="SourceAlpha" dx="-.29" dy="5.99"/><feGaussianBlur result="blurOut" in="offOut" stdDeviation="5"/><feColorMatrix result="colorOut" in="blurOut" values="0 0 0 0 0.3686274509803922 0 0 0 0 0.3686274509803922 0 0 0 0 0.3686274509803922 0 0 0 1 0"/><feBlend in="SourceGraphic" in2="colorOut"/></filter><path fill="#333" d="M43-142c21-26 25-68 45-101-4-5-16-7-23-13-7 42-19 88-43 112 5 8 7 15 8 22 17-9 30-10 51-22-12 29-34 68-59 80 5 8 9 16 10 23 27-15 49-19 86-41l-3-4C88-75 65-67 44-63c36-31 51-81 81-126-5-6-17-7-25-14-4 18-8 35-15 51-15 5-29 8-42 10zM34 46c22-32 47-40 83-84l-3-3C76-10 57 7 18 18c5 6 10 21 16 28zm164-304c18 11 23 23 33 33 9 1 13-18 4-23-5-4-17-9-35-14zm117 62c-1-8 18-14 4-21-5-3-11-6-16-12l-11 8H149l-21-12c9 108 5 224-36 286l3 1c42-65 50-93 53-207h150c-2 11 4 14 13 9 10-10 1-36 4-52zm-167 33v-48h150v48H148zm171 74c0-7 19-14 7-19-5-3-10-8-14-14l-12 8H168l-17-8c10 50 0 116 4 173 0 7 12 0 15-2v-84h33v78c2 7 14-2 17-5v-73h30v78c2 6 14-1 16-5v-73h36c-3 20 6 55-5 66-6 0-13-1-22-3v3c13 4 19 14 25 23 35-16 13-95 19-143zM170-45v-59h33v59h-33zm50-59h30v59h-30v-59zm46 0h36v59h-36v-59" id="V"/><use transform="matrix(0.06172839506172839,0,0,0.06172839506172839,0,0)" xlink:href="#V" id="n"/><path fill="#333" d="M84-186c13-6 13-23-2-34-10-7-23-17-42-27l-2 2c21 20 24 24 36 50 2 5 6 9 10 9zm11 52c0-11 19-12 6-20-4-2-10-6-15-12l-10 13H17l5 9h55v129c0 7-2 11-8 15 6 6 10 13 13 20 15-13 29-29 43-48l5 9h80c1 23-3 52 2 72 5-3 14-3 16-9v-63h102c11-11-17-17-22-29l-17 20h-63v-46h74c11-11-15-16-19-27l-17 18h-38c-1-16 0-31 7-38-3-7-23-5-28-9 3 12 3 31 3 47h-75l5 9h70v46h-85c2-5 13-11 8-17-13 14-25 25-38 33v-122zm131-23c15 15 56 37 77 43 8-7 18-10 28-10v-5c-36-8-67-21-93-38 16-13 32-30 48-52 3-5 23-8 9-15-4-3-9-9-13-18l-16 9H133c2 13 19 10 34 10 14 29 27 48 47 66-24 18-57 34-100 49l1 3c52-11 84-25 111-42zm-53-76h96c-13 25-27 44-43 58-18-13-35-32-53-58" id="W"/><use transform="matrix(0.06172839506172839,0,0,0.06172839506172839,0,0)" xlink:href="#W" id="o"/><path fill="#333" d="M21 54C72-2 82-33 82-148h246c9 0 7-9 1-12-9-4-17-10-23-18l-19 20H82v-57c68 0 130-7 187-18 5-2 17 7 19 0-4-11-19-15-23-26-49 22-109 34-181 38l-25-15c4 15 6 46 6 94C63-31 58-8 18 53zM295-71c1-6 21-12 5-19-4-3-9-7-14-13l-13 14H132l-20-9c11 41 2 100 5 149 2 7 14-1 16-4V24h146c1 6-3 18 3 19 4-2 11-2 13-7V-71zM133 14v-93h146v93H133" id="X"/><use transform="matrix(0.06172839506172839,0,0,0.06172839506172839,0,0)" xlink:href="#X" id="p"/><path fill="#333" d="M77-191c19-20 23-42 41-56-7-6-18-7-26-15-2 25-9 49-19 71-19 2-32-3-43-9 10 71 1 160 4 238 3 5 15-2 17-5V7h75c-4 16 6 30 17 15v-131c18-17 37-45 51-72h112c-3 76-5 133-11 170-4 24-5 39-23 39s-32-1-40-4v4c20 4 31 14 40 26 32-7 35-29 40-68 5-37 6-88 9-154 1-7 22-13 8-19-5-3-9-7-13-14l-13 10H199c9-17 13-44 29-56-6-5-18-8-26-14-8 58-30 103-59 145 1-25-6-60 11-66-3-9-15-10-21-19-8 14-35 9-56 10zM51-2v-90h75v90H51zm0-99v-80h75v80H51zm181 45c15-4 12-25 0-36-8-6-22-24-38-29 16 23 20 27 29 57 2 5 5 8 9 8" id="Y"/><use transform="matrix(0.06172839506172839,0,0,0.06172839506172839,0,0)" xlink:href="#Y" id="q"/><path fill="#333" d="M102-226c-2-15 4-20 7-28l-27-8c3 8 3 24 3 36H22l5 9h58v31H32l5 9h48v32H18l5 9h142c8 1 9-8 2-10-7-4-12-8-16-13l-14 14h-35v-32h53c8 1 8-9 1-10-7-4-12-8-16-13l-12 14h-26v-31h59c8 1 9-8 2-9-7-4-12-9-16-14l-14 14h-31zm48 141c0-7 19-14 7-19-5-3-9-8-14-14-16 17-60 6-90 9l-19-10c9 49 2 114 4 170 2 7 15-1 17-4v-63h78c-2 15 5 41-5 47-7 0-17-1-28-3v3c14 4 22 14 29 23 9-2 21-15 21-28V-85zM55-26v-31h78v31H55zm0-41v-33h78v33H55zm172-163c-1-11 26-14 12-22-5-2-11-5-18-10-14 41-24 55-52 80 18 1 39-23 51-39h46c-8 15-19 32-32 50h-57c4 15 32 7 50 9v47h-61l6 10h55v48h-53c5 16 35 7 53 9v68c0 12-25 9-38 8v4c20 5 31 11 36 22 27-9 16-65 18-102h43c1 4-2 13 2 14 5-2 14-1 14-7v-64c11 0 39 2 25-10-5-5-11-8-15-12l-10 9c0-19-3-41 10-45-2-7-13-10-17-18-8 14-34 10-56 10 17-11 34-36 58-46-4-9-13-9-17-20-11 9-33 7-53 7zm16 68h43v47h-43v-47zm0 57h43v48h-43v-48" id="Z"/><use transform="matrix(0.06172839506172839,0,0,0.06172839506172839,0,0)" xlink:href="#Z" id="r"/><path fill="#333" d="M194-94c-9-18-21-21-53-40 16-15 24-41 37-62 11 42 87 106 119 119 12-8 24-12 37-12v-4c-76-21-107-41-150-103h135c11 1 10-9 2-11-9-5-16-11-21-18l-18 19H180c4-16 8-34 17-45-7-4-22-5-31-11 4 20 0 39-5 56H25l5 10h128c-25 68-63 92-140 122l3 4c54-15 93-35 118-62 17 15 29 32 38 51 1 3 4 4 7 4 6 0 11-10 10-17zM73-41C69-11 38 3 29 28c8 15 23 7 32-10 8-13 13-33 16-59h-4zm55 52c1-23-5-56 7-67-6-4-18-4-28-9 6 24 1 49 3 76 3 37 17 33 71 33 50 0 67 6 81-18-11-6-12-24-12-45h-3c-3 18-2 40-14 45-18-1-115 14-105-15zm72-17c13-4 14-23 0-33-7-5-21-21-37-24 16 19 18 22 28 48 2 5 5 9 9 9zm105 31c5 15 22 8 19-8-4-27-28-46-53-62 20 27 22 34 34 70" id="aa"/><use transform="matrix(0.06172839506172839,0,0,0.06172839506172839,0,0)" xlink:href="#aa" id="s"/><path d="M59-211v-22h220v22H59zM28 4v-22h282V4H28" id="ab"/><use transform="matrix(0.05,0,0,0.05,0,0)" xlink:href="#ab" id="u"/><filter id="t" filterUnits="objectBoundingBox" x="-.08" y="-.03" width="1.17" height="1.17"><feOffset result="offOut" in="SourceAlpha" dy="6"/><feGaussianBlur result="blurOut" in="offOut" stdDeviation="5"/><feColorMatrix result="colorOut" in="blurOut" values="0 0 0 0 0 0 0 0 0 0 0 0 0 0 0 0 0 0 0.5019607843137255 0"/><feBlend in="SourceGraphic" in2="colorOut"/></filter><path fill="#333" d="M305-152c1-7 19-14 7-20-5-3-10-7-14-13l-12 11h-59c6-5 7-16-2-22 25-7 49-23 80-29 19-11-11-17-15-29l-13 10H118l6 10h153l-56 35c-8-6-26-15-53-27l-2 2c28 19 39 32 53 50-32-1-72 6-90-10 10 58 1 133 4 198 2 7 15-1 17-4v-66h59c2 22-4 53 3 70 4-3 13-2 13-8v-62h63c-2 14 5 43-5 48-9 0-21-1-36-3v3c16 5 26 12 33 23 9-1 28-14 25-27v-140zM150-65v-47h59v47h-59zm75-47h63v47h-63v-47zm-75-10v-43h59v43h-59zm75-43h63v43h-63v-43zM70-189c6 16 23 10 21-8-7-19-29-34-54-43 19 20 24 23 33 51zm18 93c0-11 21-11 6-20-3-2-8-6-12-11-8 16-37 10-60 11l5 9h44V5C55 17 38 26 18 31c9 8 11 16 18 22 1-1 1-4 1-7C53 34 68 21 80 9c35 51 142 30 228 35 8-12 16-19 24-22v-4C285 26 115 45 88 5V-96" id="ac"/><use transform="matrix(0.05555555555555555,0,0,0.05555555555555555,0,0)" xlink:href="#ac" id="v"/><path fill="#333" d="M227 12c11 9 34-13 34-31v-154h56c12 0 11-8 2-11-10-6-17-12-22-19-10 9-13 25-36 21 2-25-6-63 8-73-5-6-20-3-29-8 5 20 2 55 3 81H128l5 9h110v154c-6 15-41 4-55 3v4c21 4 34 12 39 24zm-46-97c5 14 23 9 19-8-5-21-28-37-52-47 19 21 23 26 33 55zM82-197c9-2 15-18 6-27-4-4-24-20-48-27 17 15 29 31 36 50 2 3 3 4 6 4zM56 9c42 53 161 32 256 37 9-12 18-21 26-24v-4C290 26 95 46 64 3c27-25 38-44 54-86 5-3 19-5 8-14-4-4-9-10-14-17-5 12-21 12-39 11 11-18 17-42 33-55 11-9-7-11-11-19l-10 11H21l5 10h59L45-85c8 6 22 0 23-8h34C90-46 84-33 62 0c-1-1-4-2-5 0-13 17-28 28-45 36 9 3 13 25 17 13C39 36 48 22 56 9" id="ad"/><path fill="#333" d="M76-115c0 75 46 117 116 94v-68l-30-5v-13h108v13l-23 5v77C218-3 181 4 145 4 67 4 18-36 18-115c0-83 46-123 130-123 37-1 66 6 91 15v54h-15c2-41-32-51-70-51-60 0-78 41-78 105" id="ae"/><path fill="#333" d="M77-16l18 4V0H8v-12l18-4v-133l-17-5v-11h68v149zM51-196c-16 0-27-10-27-27s10-27 27-27 27 11 27 27c0 17-10 27-27 27" id="af"/><path fill="#333" d="M78-41c-2 24 21 26 40 20C122 3 98 2 77 4 5 10 32-84 27-147H6v-11l25-7 21-38h26v38h35v18H78v106" id="ag"/><path fill="#333" d="M127-114c3-31-26-38-50-25v123l15 4V0H10v-12l16-4v-218l-17-4v-12h68l-1 99c31-23 102-32 102 30v105l17 4V0h-82v-12l14-4v-98" id="ah"/><path fill="#333" d="M73-51c-3 31 27 38 51 25v-123l-16-5v-11h66v149l17 4V0h-65l-2-14C94 9 22 18 22-44v-105l-17-5v-11h68v114" id="ai"/><path fill="#333" d="M72-18c49 15 64-22 62-69-1-34-4-62-34-63-10-1-23 2-28 6v126zm33 22C77 4 48-3 21-8v-226l-16-4v-12h67c-1 31 2 66-2 94 11-8 28-14 47-14 51 0 70 31 69 83-1 55-26 91-81 91" id="aj"/><g id="w"><use transform="matrix(0.05555555555555555,0,0,0.05555555555555555,0,0)" xlink:href="#ad"/><use transform="matrix(0.05555555555555555,0,0,0.05555555555555555,20,0)" xlink:href="#ae"/><use transform="matrix(0.05555555555555555,0,0,0.05555555555555555,35.55555555555556,0)" xlink:href="#af"/><use transform="matrix(0.05555555555555555,0,0,0.05555555555555555,41.111111111111114,0)" xlink:href="#ag"/><use transform="matrix(0.05555555555555555,0,0,0.05555555555555555,47.72222222222223,0)" xlink:href="#ah"/><use transform="matrix(0.05555555555555555,0,0,0.05555555555555555,58.83333333333334,0)" xlink:href="#ai"/><use transform="matrix(0.05555555555555555,0,0,0.05555555555555555,69.94444444444446,0)" xlink:href="#aj"/></g><path fill="#333" d="M75-13V0H4v-13l17-5 84-220h51l83 220 18 5V0H152v-13l28-5-23-61H67L45-18zm38-189L74-98h76" id="ak"/><path fill="#333" d="M109-18c15 0 31-2 42-6v14c-11 9-31 13-51 13-59 0-86-28-88-86-3-75 66-101 135-80v48h-13c-3-20-7-40-34-37-51 7-55 138 9 134" id="al"/><path fill="#333" d="M90-170c54-1 76 32 76 87 1 56-23 87-77 87-53 0-75-32-75-87s23-86 76-87zM89-14c28-2 26-38 26-69s3-69-26-69c-27 0-24 39-24 69s-3 66 24 69" id="am"/><path fill="#333" d="M127-114c3-31-26-38-50-25v123l15 4V0H10v-12l16-4v-133l-16-5v-11h64l2 14c31-23 102-32 102 30v105l17 4V0h-82v-12l14-4v-98" id="an"/><g id="x"><use transform="matrix(0.05555555555555555,0,0,0.05555555555555555,0,0)" xlink:href="#ak"/><use transform="matrix(0.05555555555555555,0,0,0.05555555555555555,14.388888888888888,0)" xlink:href="#al"/><use transform="matrix(0.05555555555555555,0,0,0.05555555555555555,23.22222222222222,0)" xlink:href="#ag"/><use transform="matrix(0.05555555555555555,0,0,0.05555555555555555,29.833333333333332,0)" xlink:href="#af"/><use transform="matrix(0.05555555555555555,0,0,0.05555555555555555,35.388888888888886,0)" xlink:href="#am"/><use transform="matrix(0.05555555555555555,0,0,0.05555555555555555,45.388888888888886,0)" xlink:href="#an"/></g><path fill="#333" d="M148-204c21-15 32-29 47-41-6-7-20-8-27-17-3 20-12 40-27 58-30 0-64 4-79-11 10 80 1 178 4 265 1 9 10 0 15 0 6-3 2-14 3-22h180c1 7-2 19 2 22 5-2 13-3 16-7v-224c-1-9 20-15 4-22-5-3-11-8-17-14l-11 13H148zM84 18v-68h180v68H84zm0-78v-63h180v63H84zm0-73v-62h180v62H84" id="ao"/><use transform="matrix(0.05555555555555555,0,0,0.05555555555555555,0,0)" xlink:href="#ao" id="y"/><path fill="#333" d="M143-229l-17 19H37l6 10h118c9 0 11-9 2-11-9-5-15-12-20-18zM165 5c15-7 10-28-1-43-8-11-21-24-39-39 5 19 18 30 22 46C109-16 73-5 38 2c25-40 46-82 61-125h78c8 1 12-9 3-11-9-5-16-12-21-18l-16 19H19l6 10h53C64-73 44-30 18 6c9 9 7 31 18 16l113-47c4 9 5 29 16 30zm71 21c14 4 20 15 28 25 32-13 36-17 43-51 5-26 9-79 13-159 4-4 18-11 6-16-5-3-10-8-14-14l-15 12h-53c1-24-4-57 6-70-6-4-20-4-29-9 7 30 7 49 5 79h-47l5 10h42C224-62 196 7 137 51l3 3c79-45 97-108 104-221h59c-4 98-10 158-20 181-15 19-15 11-47 8v4" id="ap"/><use transform="matrix(0.05555555555555555,0,0,0.05555555555555555,0,0)" xlink:href="#ap" id="z"/><path fill="#333" d="M43-142c21-26 25-68 45-101-4-5-16-7-23-13-7 42-19 88-43 112 5 8 7 15 8 22 17-9 30-10 51-22-12 29-34 68-59 80 5 8 9 16 10 23 27-15 49-19 86-41l-3-4C88-75 65-67 44-63c36-31 51-81 81-126-5-6-17-7-25-14-4 18-8 35-15 51-15 5-29 8-42 10zM34 46c22-32 47-40 83-84l-3-3C76-10 57 7 18 18c5 6 10 21 16 28zm164-304c18 11 23 23 33 33 9 1 13-18 4-23-5-4-17-9-35-14zm117 62c-1-8 18-14 4-21-5-3-11-6-16-12l-11 8H149l-21-12c9 108 5 224-36 286l3 1c42-65 50-93 53-207h150c-2 11 4 14 13 9 10-10 1-36 4-52zm-167 33v-48h150v48H148zm171 74c0-7 19-14 7-19-5-3-10-8-14-14l-12 8H168l-17-8c10 50 0 116 4 173 0 7 12 0 15-2v-84h33v78c2 7 14-2 17-5v-73h30v78c2 6 14-1 16-5v-73h36c-3 20 6 55-5 66-6 0-13-1-22-3v3c13 4 19 14 25 23 35-16 13-95 19-143zM170-45v-59h33v59h-33zm50-59h30v59h-30v-59zm46 0h36v59h-36v-59" id="aq"/><use transform="matrix(0.05555555555555555,0,0,0.05555555555555555,0,0)" xlink:href="#aq" id="A"/><path fill="#333" d="M84-186c13-6 13-23-2-34-10-7-23-17-42-27l-2 2c21 20 24 24 36 50 2 5 6 9 10 9zm11 52c0-11 19-12 6-20-4-2-10-6-15-12l-10 13H17l5 9h55v129c0 7-2 11-8 15 6 6 10 13 13 20 15-13 29-29 43-48l5 9h80c1 23-3 52 2 72 5-3 14-3 16-9v-63h102c11-11-17-17-22-29l-17 20h-63v-46h74c11-11-15-16-19-27l-17 18h-38c-1-16 0-31 7-38-3-7-23-5-28-9 3 12 3 31 3 47h-75l5 9h70v46h-85c2-5 13-11 8-17-13 14-25 25-38 33v-122zm131-23c15 15 56 37 77 43 8-7 18-10 28-10v-5c-36-8-67-21-93-38 16-13 32-30 48-52 3-5 23-8 9-15-4-3-9-9-13-18l-16 9H133c2 13 19 10 34 10 14 29 27 48 47 66-24 18-57 34-100 49l1 3c52-11 84-25 111-42zm-53-76h96c-13 25-27 44-43 58-18-13-35-32-53-58" id="ar"/><use transform="matrix(0.05555555555555555,0,0,0.05555555555555555,0,0)" xlink:href="#ar" id="B"/><path fill="#333" d="M133-191c16-5 12-25-4-35-11-7-31-24-55-29 29 22 34 24 50 56 2 5 5 8 9 8zm144-52c7 1 15-9 2-10-6-1-11-4-18-9-8 32-21 54-38 78H40l5 10h75l-1 82H26l6 10h86C107-7 86 10 21 49l2 2C99 15 127-1 136-82h85V53c4 5 16-2 18-7V-82h84c9 0 11-9 2-11-9-5-17-12-22-18l-17 19h-47v-82h71c7 0 11-8 2-11-8-5-15-10-20-16l-16 17h-45c16-13 31-33 46-59zM221-92h-84v-82h84v82" id="as"/><path fill="#333" d="M186-86c2 69-46 103-114 85l1 62 25 4v12H5V65l18-4v-210l-18-5v-11h67v8c12-8 26-13 46-13 49 2 67 30 68 84zm-83 71c28 0 31-33 31-69 0-34-2-66-30-66-12 0-23 3-31 7v124c9 2 20 4 30 4" id="at"/><path fill="#333" d="M102-142c-14-17-68-15-54 18 24 26 83 17 83 72 0 62-72 62-120 47v-45h12c4 23 16 37 43 37 35 0 39-37 9-46-31-9-65-19-64-61 0-52 59-55 108-45v43h-11" id="au"/><g id="C"><use transform="matrix(0.05555555555555555,0,0,0.05555555555555555,0,0)" xlink:href="#as"/><use transform="matrix(0.05555555555555555,0,0,0.05555555555555555,20,0)" xlink:href="#at"/><use transform="matrix(0.05555555555555555,0,0,0.05555555555555555,31.11111111111111,0)" xlink:href="#ai"/><use transform="matrix(0.05555555555555555,0,0,0.05555555555555555,42.22222222222222,0)" xlink:href="#au"/><use transform="matrix(0.05555555555555555,0,0,0.05555555555555555,50,0)" xlink:href="#ah"/></g><path fill="#333" d="M92-112c43 4 61-13 61-54s-18-54-61-50v104zm118-54c0 63-50 78-118 74v74l39 5V0H8v-13l28-5v-200l-30-5v-13c88 3 205-20 204 70" id="av"/><g id="D"><use transform="matrix(0.04938271604938272,0,0,0.04938271604938272,0,0)" xlink:href="#av"/><use transform="matrix(0.04938271604938272,0,0,0.04938271604938272,10.814814814814815,0)" xlink:href="#ai"/><use transform="matrix(0.04938271604938272,0,0,0.04938271604938272,20.69135802469136,0)" xlink:href="#au"/><use transform="matrix(0.04938271604938272,0,0,0.04938271604938272,27.604938271604947,0)" xlink:href="#ah"/></g><path fill="#333" d="M44-241c21 13 25 28 37 40 11 0 13-19 4-26-7-5-19-11-38-18zm-19 70c18 14 22 29 33 41 10 0 12-19 4-26-5-6-17-12-35-19zM70-13c10-65 20-92 34-154l-2-1C84-122 69-83 57-49c-6 18-17 14-34 16v5c31 2 30 20 30 49 0 14 16 25 23 13 8-13-9-32-6-47zm236-145c-1-8 19-13 4-20-5-3-10-7-15-13l-11 10h-67c9-12 17-27 24-44h86c7 0 6-8 1-11-9-4-16-10-22-18l-18 20H143l-23-14c4 12 5 36 5 75-1 117-3 143-36 212l3 1c51-64 51-137 51-265h77c-2 15-4 29-8 44-22 1-40-1-51-10 9 36 2 85 4 127 5 5 20-1 16-13h50v95c-1 15-30 8-44 7v4c24 4 31 14 40 24 34-12 16-85 20-130h43c1 4-2 11 2 12 4-2 12-3 14-7v-86zM181-86v-40h109v40H181zm0-50v-35h109v35H181zM122 38c33-10 54-46 81-69-4-7-15-8-22-17-13 37-33 62-59 86zm191-17c6 14 22 8 19-8-5-26-33-45-63-58 26 27 30 30 44 66" id="aw"/><use transform="matrix(0.04938271604938272,0,0,0.04938271604938272,0,0)" xlink:href="#aw" id="E"/><path fill="#333" d="M183-191c1-19-4-45 6-54-3-7-18-4-26-9 5 17 2 42 3 63H25l5 10h75c15 71 28 108 60 148C138-6 76 32 19 49l3 4c62-18 112-41 152-75 28 32 64 57 106 73 10-8 24-12 39-12v-4c-59-12-99-36-132-69 27-30 48-73 72-147h64c8-1 6-10-2-12-6-4-12-10-20-19l-19 21h-99zm-73 10h129c-17 61-38 106-63 136-34-37-53-79-66-136" id="ax"/><use transform="matrix(0.04938271604938272,0,0,0.04938271604938272,0,0)" xlink:href="#ax" id="F"/><path fill="#333" d="M81-153c4-8 8-14-5-17 10-19 20-41 30-66 3-3 19-6 5-12-6-3-12-7-19-14-16 70-41 120-74 168l3 2c14-15 28-33 42-55V51c1 9 10 0 15 0 2-1 3-2 3-4v-200zm77-20c9-11 9-32 22-41 6-2 5-6-2-9-6-2-13-5-20-10-10 54-26 93-55 126l3 3c20-18 33-37 47-59h59v86H102l5 10h105l1 122c5-3 14-3 16-9V-67h98c10 0 10-7 2-11-9-4-16-12-21-18l-18 19h-61v-86h86c7 0 6-8 1-11-9-4-16-10-22-18l-18 19h-47c2-26-6-62 7-75-5-7-23-4-29-8 7 15 5 57 5 83h-54" id="ay"/><use transform="matrix(0.04938271604938272,0,0,0.04938271604938272,0,0)" xlink:href="#ay" id="G"/><path fill="#333" d="M84-155c2-8 9-12-3-16 11-19 20-40 31-65 4-3 20-6 6-12-6-3-12-7-19-14-18 70-45 120-82 168l2 2c16-15 32-33 47-55V51c1 9 10 0 15 0 2-1 3-2 3-4v-202zM319-31c-10 25-9 33-21 52-45-29-79-91-85-164l110-10c8-12-19-16-26-27l-11 20-74 6c2-23-11-79 6-93-5-8-18-4-31-9 10 33 3 71 8 104l-89 8 6 10 84-8c14 87 43 165 116 188 16-1 5-16 4-24-2-2 6-29 3-53zm-77-208c22 16 28 33 40 47 11-1 9-21 1-27-6-7-19-16-40-24" id="az"/><use transform="matrix(0.04938271604938272,0,0,0.04938271604938272,0,0)" xlink:href="#az" id="H"/><path fill="#333" d="M141-112c1-7 19-14 4-21-4-3-10-6-15-12l-10 12c-17-1-38 2-51-2 7-20 14-48 21-82h57c9 0 9-8 1-10-8-5-14-11-19-17l-17 18H21l5 9h43C55-133 49-105 18-50l3 2c16-20 29-41 38-62V36c1 8 11 1 14 1 7-5 1-18 3-27h49c1 5-2 14 3 14 4-2 11-3 13-7v-129zM76 0v-123h49V0H76zm212-222c3-5 21-11 5-18-5-3-9-6-14-12l-13 11H158l5 9h109l-8 124h-85c11-32 5-74 20-99-5-4-18-5-26-10 2 42-2 87-15 119-1 2 10 7 12 8 4 1 6-7 9-8h130c-9 71-6 98-25 128-13 6-19 2-41-1v3c15 5 23 12 29 22 20 0 33-14 38-33 6-20 11-57 14-109 0-9 18-11 5-19-4-2-8-6-13-12-6 10-18 13-35 11zM261-64l-18 19h-96l6 10h127c9 1 11-9 2-11-9-5-16-12-21-18" id="aA"/><use transform="matrix(0.04938271604938272,0,0,0.04938271604938272,0,0)" xlink:href="#aA" id="I"/></defs></g></svg>